<?xml version="1.0" encoding="utf-8"?>
<!-- Generator: Adobe Illustrator 26.0.1, SVG Export Plug-In . SVG Version: 6.00 Build 0)  -->
<svg version="1.1" id="Layer_1" xmlns="http://www.w3.org/2000/svg" xmlns:xlink="http://www.w3.org/1999/xlink" x="0px" y="0px"
	 viewBox="0 0 1235 304.5" style="enable-background:new 0 0 1235 304.5;" xml:space="preserve">
<style type="text/css">
	.st0{fill:#F78E1E;}
	.st1{fill:#58585A;}
	.st2{fill:#F78F20;}
</style>
<g id="Layer_2_00000139277520847824946990000000061520552514018222_">
	<path class="st0" d="M1209.9,64.8V16.3H923.8V50h267.8L1209.9,64.8z M1209.9,164.1v-48.5H923.8v33.7h267.8L1209.9,164.1z
		 M1209.9,114.5V66H923.8v33.7h267.8L1209.9,114.5z M923.8,199h286.1v-33.7H923.8V199z"/>
	<path class="st1" d="M282.7,59.8c-11.4,0-21.6,1.7-30.6,5.1c-9.7,3.7-16.7,9-21,15.8c-4.3,6.8-6.9,15.7-7.8,26.8h34.4
		c0.7-6.5,3.4-11.5,8.2-15c4.5-3.3,9.9-5,15.4-4.8c5.5-0.1,10.8,1.5,15.3,4.7c4.2,2.8,6.7,7.6,6.5,12.6c0,6-7.3,9.9-21.8,11.7
		c-20.5,2.6-34.1,5.4-40.8,8.7c-14.5,7-21.8,19.7-21.8,38.2c0,12.9,4.8,22.8,14.3,29.6c8.2,5.8,18.5,8.7,31.1,8.7
		c18.2,0,31.4-4.6,39.8-13.8c1.2,5.4,2.3,9.1,3.3,11h33.4v-83.9C340.6,78.6,321.3,60.2,282.7,59.8z M297.8,165.3
		c-2.7,3.2-6.7,6-12,8.3c-4.8,2.2-10,3.4-15.3,3.4c-10.7,0-16.1-5.1-16.1-15.3c0-8,3.1-13.6,9.4-16.8c3.1-1.7,9.7-3.5,19.9-5.4
		c9-1.7,15.3-4,18.9-6.9c0,1.4,0.1,3.5,0.3,6.4c0.2,2.9,0.3,5.1,0.3,6.6C303.1,154.4,301.3,160.9,297.8,165.3z M172.3,199h35.9V15.7
		h-35.9V199z M132.8,100.9c-3.4-1.5-21.4-6.2-54-14c-19.4-4.6-29.1-12-29.1-22.4c0.2-7.5,4.1-13.3,11.7-17.3
		c6.7-3.3,14.2-5,21.7-4.8c9.3,0,17.3,2.2,24,6.6c7.5,4.9,11.6,12,12.5,21.1h36.7c-0.9-19.4-8.9-34.5-24.2-45.4
		c-13.4-9.7-29.7-14.5-48.9-14.5c-12-0.1-23.9,2.2-34.9,6.9C37,21.8,28.6,28.4,23.1,37c-5.6,8.8-8.6,19-8.5,29.4
		c-0.2,21.6,9.3,36.9,28.3,45.9c3.9,1.9,21.8,6.6,53.5,14.3c19.2,4.6,28.7,12.3,28.6,23.2c0,7-3.7,12.6-11.1,16.8
		c-7.4,4.3-16,6.4-25.9,6.4c-10.7,0-19.6-2.5-26.8-7.4c-8.2-5.4-12.4-13.1-12.8-22.9h-37c1.4,40.6,28.6,61.1,81.6,61.4
		c11.7,0,23.2-2.4,33.9-7.1c11.4-5.3,20.2-12.4,26.5-21.4c5.6-8.3,8.4-18.8,8.4-31.4C161.9,124,152.2,109.5,132.8,100.9L132.8,100.9
		z M623.5,63.1l-20.9,87.4l-20.9-87.4h-36.5l-18.9,87.4l-21.9-87.4H388.3V26.7h-35.7v121.6c-0.1,9.5,1.7,19,5.4,27.8
		c4.1,9,11,16.1,20.6,21.2c9.2,4.7,19.3,7,29.6,6.9c17.5,0,31.1-5.3,40.8-15.8c5.9-6.6,9.9-15.8,12-27.5c1.4-7.1,2-17.4,2-30.8
		v-20.1h-33.4v24.7c0,16.8-2.4,27.8-7.1,32.9c-3.2,3.6-7.8,5.4-13.8,5.4c-10.2,0-16.5-4.1-18.9-12.2c-1-3.6-1.5-8.8-1.5-15.8V88.9
		H474L505,199h37l21.4-78.8l21.4,78.8h36.7l39-135.9L623.5,63.1z M792.7,199h35.9V15.7h-35.9L792.7,199z M843.7,15.7V199h35.9V15.7
		H843.7z M720.6,59.8c-11.4,0-21.6,1.7-30.6,5.1c-9.7,3.7-16.7,9-21,15.8c-4.3,6.8-6.9,15.7-7.8,26.8h34.4c0.7-6.5,3.4-11.5,8.2-15
		c4.4-3.3,9.9-5,15.4-4.8c5.5-0.1,10.8,1.5,15.3,4.7c4.2,2.8,6.7,7.6,6.5,12.6c0,6-7.3,9.9-21.8,11.7c-20.5,2.6-34.1,5.4-40.8,8.7
		c-14.5,7-21.8,19.7-21.8,38.2c0,12.9,4.8,22.8,14.3,29.6c8.2,5.8,18.5,8.7,31.1,8.7c18.2,0,31.4-4.6,39.8-13.8
		c1.2,5.4,2.3,9.1,3.3,11h33.4v-83.9C778.4,78.6,759.2,60.2,720.6,59.8z M735.6,165.3c-2.7,3.2-6.7,6-12,8.3
		c-4.8,2.2-10,3.4-15.3,3.4c-10.7,0-16.1-5.1-16.1-15.3c0-8,3.1-13.6,9.4-16.8c3.1-1.7,9.7-3.5,19.9-5.4c9-1.7,15.3-4,18.9-6.9
		c0,1.4,0.1,3.5,0.3,6.4c0.2,2.9,0.2,5.1,0.2,6.6C741,154.4,739.2,160.9,735.6,165.3z"/>
	<path class="st2" d="M233.3,257.3v19.4h-5.5v-4.2c-1.9,2.9-5.5,4.6-10.5,4.6c-7.3,0-11.9-3.9-11.9-9.4c0-5.1,3.3-9.4,12.9-9.4h9.2
		v-1.1c0-4.9-2.8-7.7-8.6-7.7c-3.7,0-7.3,1.2-10.2,3.4l-2.4-4.4c3.3-2.7,8.1-4.1,13.2-4.1C228.4,244.3,233.3,248.5,233.3,257.3z
		 M227.5,266.9v-4.5h-8.9c-5.7,0-7.4,2.2-7.4,5c0,3.2,2.7,5.2,7.1,5.2C222.6,272.5,226.1,270.5,227.5,266.9z"/>
	<path class="st2" d="M274.5,258.2v18.4h-5.8v-17.8c0-6.3-3.1-9.4-8.6-9.4c-6.2,0-10.2,3.7-10.2,10.6v16.5h-5.8v-32.1h5.6v4.8
		c2.4-3.3,6.5-5.1,11.6-5.1C269,244.3,274.5,248.8,274.5,258.2z"/>
	<path class="st2" d="M302,258.4v-24.1h6v23.8c0,9.4,4.3,13.6,11.9,13.6s12-4.2,12-13.6v-23.8h5.9v24.1c0,12.3-6.7,18.7-17.9,18.7
		C308.8,277.1,302,270.7,302,258.4z"/>
	<path class="st2" d="M349.4,231.8h5.8v44.9h-5.8V231.8z"/>
	<path class="st2" d="M385,274.8c-2,1.5-4.5,2.3-7,2.2c-6.5,0-10.2-3.6-10.2-10v-17.6h-5.4v-4.8h5.4v-7h5.8v7h9.2v4.8h-9.2v17.4
		c0,3.4,1.8,5.4,5,5.4c1.6,0,3.2-0.5,4.5-1.5L385,274.8z"/>
	<path class="st2" d="M409.3,244.3v5.6c-0.4,0-0.9-0.1-1.3-0.1c-6.2,0-10.1,3.8-10.1,10.8v16h-5.8v-32.1h5.6v5.4
		C399.7,246.2,403.7,244.3,409.3,244.3z"/>
	<path class="st2" d="M441.8,257.3v19.4h-5.5v-4.2c-1.9,2.9-5.5,4.6-10.5,4.6c-7.3,0-11.9-3.9-11.9-9.4c0-5.1,3.3-9.4,12.9-9.4h9.2
		v-1.1c0-4.9-2.8-7.7-8.6-7.7c-3.7,0-7.3,1.2-10.2,3.4l-2.4-4.4c3.3-2.7,8.1-4.1,13.2-4.1C436.8,244.3,441.8,248.5,441.8,257.3z
		 M436,266.9v-4.5h-9c-5.7,0-7.4,2.2-7.4,5c0,3.2,2.7,5.2,7.1,5.2C431.1,272.5,434.5,270.5,436,266.9z"/>
	<path class="st2" d="M466.2,255.5c0-12.5,9.6-21.7,22.4-21.7c6.5,0,12.2,2.2,16.1,6.6l-3.9,3.8c-3.1-3.3-7.4-5.1-11.9-5
		c-9.6,0-16.6,6.9-16.6,16.3c0,9.4,7.1,16.3,16.6,16.3c4.5,0.1,8.9-1.8,11.9-5.1l3.9,3.8c-3.9,4.4-9.6,6.7-16.1,6.7
		C475.8,277.1,466.2,268,466.2,255.5z"/>
	<path class="st2" d="M508.2,260.6c0-9.6,7.1-16.3,16.7-16.3c9.6,0,16.6,6.8,16.6,16.3c0,9.6-7,16.4-16.6,16.4
		C515.3,277,508.2,270.2,508.2,260.6z M535.7,260.6c0-6.8-4.6-11.2-10.8-11.2c-6.2,0-10.8,4.4-10.8,11.2s4.7,11.3,10.8,11.3
		C531.1,271.9,535.7,267.5,535.7,260.6z"/>
	<path class="st2" d="M602.8,258.2v18.4H597v-17.8c0-6.3-3-9.4-8.3-9.4c-5.8,0-9.6,3.7-9.6,10.6v16.5h-5.8v-17.8
		c0-6.3-3-9.4-8.3-9.4c-5.8,0-9.6,3.7-9.6,10.6v16.5h-5.8v-32.1h5.6v4.8c2.3-3.3,6.2-5.1,11.1-5.1c4.9,0,9,1.9,11.1,5.9
		c2.4-3.6,6.9-5.9,12.3-5.9C597.5,244.3,602.8,248.8,602.8,258.2z"/>
	<path class="st2" d="M666.7,258.2v18.4h-5.8v-17.8c0-6.3-3-9.4-8.3-9.4c-5.8,0-9.6,3.7-9.6,10.6v16.5h-5.8v-17.8
		c0-6.3-3-9.4-8.3-9.4c-5.8,0-9.6,3.7-9.6,10.6v16.5h-5.8v-32.1h5.6v4.8c2.3-3.3,6.2-5.1,11.1-5.1c4.9,0,9,1.9,11.1,5.9
		c2.4-3.6,6.9-5.9,12.3-5.9C661.4,244.3,666.7,248.8,666.7,258.2z"/>
	<path class="st2" d="M706.5,262.6h-26c0.7,5.6,5.3,9.4,11.6,9.4c3.5,0.1,6.9-1.3,9.3-3.9l3.2,3.7c-2.9,3.4-7.3,5.2-12.6,5.2
		c-10.3,0-17.2-6.8-17.2-16.4c0-9.5,6.8-16.3,16.1-16.3s15.8,6.7,15.8,16.5C706.6,261.3,706.5,262,706.5,262.6z M680.5,258.4H701
		c-0.6-5.7-5.8-9.8-11.4-9.1C684.8,249.8,681,253.6,680.5,258.4z"/>
	<path class="st2" d="M731.9,244.3v5.6c-0.4,0-0.9-0.1-1.3-0.1c-6.2,0-10.1,3.8-10.1,10.8v16h-5.8v-32.1h5.6v5.4
		C722.3,246.2,726.2,244.3,731.9,244.3z"/>
	<path class="st2" d="M735.7,260.6c0-9.6,7.1-16.3,16.9-16.3c5.7,0,10.5,2.4,13.1,6.8l-4.4,2.8c-1.9-3-5.2-4.7-8.7-4.6
		c-6.3,0-11,4.4-11,11.2c0,7,4.7,11.3,11,11.3c3.5,0.1,6.8-1.6,8.7-4.6l4.4,2.8c-2.5,4.5-7.3,6.9-13.1,6.9
		C742.8,277,735.7,270.2,735.7,260.6z"/>
	<path class="st2" d="M801.6,262.6h-26c0.7,5.6,5.3,9.4,11.6,9.4c3.5,0.1,6.9-1.3,9.3-3.9l3.2,3.7c-2.9,3.4-7.3,5.2-12.6,5.2
		c-10.3,0-17.2-6.8-17.2-16.4c0-9.5,6.8-16.3,16.1-16.3s15.8,6.7,15.8,16.5C801.7,261.3,801.7,262,801.6,262.6z M775.6,258.4h20.6
		c-0.6-5.7-5.8-9.8-11.4-9.1C779.9,249.8,776.1,253.6,775.6,258.4L775.6,258.4z"/>
	<path class="st2" d="M823.1,260.6c0-9.6,7.1-16.3,16.9-16.3c5.7,0,10.5,2.4,13.1,6.8l-4.4,2.8c-1.9-3-5.2-4.7-8.7-4.6
		c-6.3,0-11,4.4-11,11.2c0,7,4.7,11.3,11,11.3c3.5,0.1,6.8-1.6,8.7-4.6l4.4,2.8c-2.5,4.5-7.3,6.9-13.1,6.9
		C830.1,277,823.1,270.2,823.1,260.6z"/>
	<path class="st2" d="M857.1,260.6c0-9.6,7.1-16.3,16.7-16.3c9.6,0,16.6,6.8,16.6,16.3c0,9.6-7,16.4-16.6,16.4
		C864.2,277,857.1,270.2,857.1,260.6z M884.6,260.6c0-6.8-4.6-11.2-10.8-11.2c-6.2,0-10.8,4.4-10.8,11.2s4.7,11.3,10.8,11.3
		C880,271.9,884.6,267.5,884.6,260.6z"/>
	<path class="st2" d="M951.7,258.2v18.4h-5.8v-17.8c0-6.3-3-9.4-8.3-9.4c-5.8,0-9.6,3.7-9.6,10.6v16.5h-5.8v-17.8
		c0-6.3-3-9.4-8.3-9.4c-5.8,0-9.6,3.7-9.6,10.6v16.5h-5.8v-32.1h5.6v4.8c2.3-3.3,6.2-5.1,11.1-5.1c4.9,0,9,1.9,11.1,5.9
		c2.4-3.6,6.9-5.9,12.3-5.9C946.4,244.3,951.7,248.8,951.7,258.2z"/>
	<path class="st2" d="M995.6,260.6c0,9.9-6.8,16.4-16.2,16.4c-4.3,0.1-8.5-1.8-11.2-5.2v16.6h-5.8v-43.8h5.6v5.1
		c2.6-3.6,6.7-5.4,11.4-5.4C988.8,244.3,995.6,250.8,995.6,260.6z M989.7,260.6c0-6.8-4.7-11.2-10.8-11.2c-6.1,0-10.8,4.5-10.8,11.2
		c0,6.8,4.7,11.3,10.8,11.3C985.1,271.9,989.7,267.5,989.7,260.6z"/>
	<path class="st2" d="M1028.7,257.3v19.4h-5.5v-4.2c-1.9,2.9-5.5,4.6-10.5,4.6c-7.3,0-11.9-3.9-11.9-9.4c0-5.1,3.3-9.4,12.9-9.4h9.2
		v-1.1c0-4.9-2.8-7.7-8.6-7.7c-3.7,0-7.3,1.2-10.2,3.4l-2.4-4.4c3.3-2.7,8.1-4.1,13.2-4.1C1023.8,244.3,1028.7,248.5,1028.7,257.3z
		 M1022.9,266.9v-4.5h-9c-5.7,0-7.4,2.2-7.4,5c0,3.2,2.7,5.2,7.1,5.2C1018,272.5,1021.5,270.5,1022.9,266.9L1022.9,266.9z"/>
	<path class="st2" d="M1069.9,258.2v18.4h-5.8v-17.8c0-6.3-3.1-9.4-8.6-9.4c-6.2,0-10.2,3.7-10.2,10.6v16.5h-5.8v-32.1h5.6v4.8
		c2.4-3.3,6.5-5.1,11.6-5.1C1064.4,244.3,1069.9,248.8,1069.9,258.2z"/>
	<path class="st2" d="M1108.5,244.6l-15.5,35.3c-2.8,6.8-6.5,8.9-11.4,8.9c-3,0.1-6-1-8.2-3l2.5-4.4c1.5,1.5,3.6,2.4,5.7,2.4
		c2.8,0,4.5-1.3,6.1-5l1-2.2l-14.2-32h6l11.2,25.6l11.1-25.6L1108.5,244.6z"/>
</g>
</svg>
